<?xml version="1.0" encoding="UTF-8" standalone="no"?>
<!-- Created with Inkscape (http://www.inkscape.org/) -->

<svg
   xmlns:dc="http://purl.org/dc/elements/1.1/"
   xmlns:cc="http://creativecommons.org/ns#"
   xmlns:rdf="http://www.w3.org/1999/02/22-rdf-syntax-ns#"
   xmlns:svg="http://www.w3.org/2000/svg"
   xmlns="http://www.w3.org/2000/svg"
   xmlns:sodipodi="http://sodipodi.sourceforge.net/DTD/sodipodi-0.dtd"
   xmlns:inkscape="http://www.inkscape.org/namespaces/inkscape"
   width="102.45627"
   height="100.57735"
   id="svg2"
   version="1.1"
   inkscape:version="0.91 r"
   sodipodi:docname="logo-darkbg.svg">
  <defs
     id="defs4" />
  <sodipodi:namedview
     id="base"
     pagecolor="#000000"
     bordercolor="#666666"
     borderopacity="1.0"
     inkscape:pageopacity="0"
     inkscape:pageshadow="2"
     inkscape:zoom="5.6"
     inkscape:cx="72.324759"
     inkscape:cy="35.39186"
     inkscape:document-units="px"
     inkscape:current-layer="layer1"
     showgrid="false"
     inkscape:snap-object-midpoints="true"
     inkscape:object-paths="true"
     inkscape:object-nodes="true"
     inkscape:snap-intersection-paths="true"
     showguides="false"
     inkscape:guide-bbox="true"
     inkscape:snap-bbox="true"
     inkscape:snap-smooth-nodes="true"
     inkscape:bbox-nodes="true"
     inkscape:snap-bbox-edge-midpoints="true"
     inkscape:bbox-paths="true"
     inkscape:snap-midpoints="true"
     inkscape:snap-bbox-midpoints="true"
     fit-margin-top="0"
     fit-margin-left="0"
     fit-margin-right="0"
     fit-margin-bottom="0"
     inkscape:window-width="1918"
     inkscape:window-height="1045"
     inkscape:window-x="0"
     inkscape:window-y="34"
     inkscape:window-maximized="0"
     inkscape:snap-global="false">
    <sodipodi:guide
       orientation="1,0"
       position="-664.65431,478.4049"
       id="guide2991" />
    <sodipodi:guide
       orientation="1,0"
       position="-503.58288,13.964516"
       id="guide3056" />
  </sodipodi:namedview>
  <metadata
     id="metadata7">
    <rdf:RDF>
      <cc:Work
         rdf:about="">
        <dc:format>image/svg+xml</dc:format>
        <dc:type
           rdf:resource="http://purl.org/dc/dcmitype/StillImage" />
        <dc:title></dc:title>
      </cc:Work>
    </rdf:RDF>
  </metadata>
  <g
     inkscape:label="Layer 1"
     inkscape:groupmode="layer"
     id="layer1"
     transform="translate(-903.94003,-826.61828)">
    <g
       style="font-size:40px;font-style:normal;font-variant:normal;font-weight:bold;font-stretch:normal;line-height:100%;letter-spacing:0px;word-spacing:0px;fill:#ffffff;fill-opacity:1;stroke:none;font-family:Nimbus Sans L;-inkscape-font-specification:Nimbus Sans L Bold"
       id="text3142">
      <path
         d="m 903.94003,856.17828 6.88,0 c 4.48,0 7.16,-0.44 9.56,-1.64 4.56,-2.23999 7.24,-7.12 7.24,-13.08 0,-5.59999 -2.32,-10.24 -6.44,-12.72 -2.32,-1.39999 -5.84,-2.12 -10.48,-2.12 l -6.76,0 0,29.56 m 5.48,-5.24 0,-19.08 1.08,0 c 3.48,0 5.36,0.32 7.08,1.2 2.8,1.44 4.52,4.60001 4.52,8.4 0,3.56 -1.64,6.72001 -4.28,8.16 -1.64,0.92 -3.92,1.32 -7.2,1.32 l -1.2,0"
         style="font-weight:600;text-align:center;line-height:100%;text-anchor:middle;font-family:URW Gothic L;-inkscape-font-specification:URW Gothic L Semi-Bold;fill:#ffffff"
         id="path3163"
         inkscape:connector-curvature="0" />
      <path
         d="m 931.90878,856.17828 15.88,0 0,-5.24 -10.4,0 0,-6.88 9.96,0 0,-5.24 -9.96,0 0,-6.96 10.4,0 0,-5.24 -15.88,0 0,29.56"
         style="font-weight:600;text-align:center;line-height:100%;text-anchor:middle;font-family:URW Gothic L;-inkscape-font-specification:URW Gothic L Semi-Bold;fill:#ffffff"
         id="path3165"
         inkscape:connector-curvature="0" />
      <path
         d="m 950.25003,856.17828 6.04,0 3.28,-7.64 10.52,0 3.16,7.64 6.04,0 -12.4,-29.56 -4.32,0 -12.32,29.56 m 11.32,-12.88 3.16,-8.96 3.16,8.96 -6.32,0"
         style="font-weight:600;text-align:center;line-height:100%;text-anchor:middle;font-family:URW Gothic L;-inkscape-font-specification:URW Gothic L Semi-Bold;fill:#ffffff"
         id="path3167"
         inkscape:connector-curvature="0" />
      <path
         d="m 982.29941,856.17828 6.88,0 c 4.47999,0 7.16,-0.44 9.56,-1.64 4.55999,-2.23999 7.23999,-7.12 7.23999,-13.08 0,-5.59999 -2.32,-10.24 -6.43999,-12.72 -2.32,-1.39999 -5.84001,-2.12 -10.48,-2.12 l -6.76,0 0,29.56 m 5.48,-5.24 0,-19.08 1.08,0 c 3.47999,0 5.36,0.32 7.08,1.2 2.79999,1.44 4.51999,4.60001 4.51999,8.4 0,3.56 -1.64,6.72001 -4.27999,8.16 -1.64,0.92 -3.92001,1.32 -7.2,1.32 l -1.2,0"
         style="font-weight:600;text-align:center;line-height:100%;text-anchor:middle;font-family:URW Gothic L;-inkscape-font-specification:URW Gothic L Semi-Bold;fill:#ffffff"
         id="path3169"
         inkscape:connector-curvature="0" />
      <path
         d="m 904.28628,896.17828 14.52,0 0,-5.24 -9.04,0 0,-24.32 -5.48,0 0,29.56"
         style="font-weight:600;text-align:center;line-height:100%;text-anchor:middle;font-family:URW Gothic L;-inkscape-font-specification:URW Gothic L Semi-Bold;fill:#ffffff"
         id="path3171"
         inkscape:connector-curvature="0" />
      <path
         d="m 975.2244,887.93828 c -2.39999,2.52 -4.48,3.48 -7.32,3.48 -5.43999,0 -9.92,-4.56 -9.92,-10.08 0,-2.39999 0.92001,-4.96 2.44,-6.72 1.8,-2.11999 4.36001,-3.24 7.36,-3.24 3.44,0 5.76001,1.12001 7.76,3.72 l 6.12,0 c -1.15999,-2.55999 -2.2,-3.96 -4.2,-5.6 -2.71999,-2.19999 -6.2,-3.4 -9.8,-3.4 -8.35999,0 -15.2,6.84001 -15.2,15.2 0,8.52 6.92001,15.4 15.56,15.4 6.04,0 11.32001,-3.36 13.64,-8.76 l -6.44,0"
         style="font-weight:600;text-align:center;line-height:100%;text-anchor:middle;font-family:URW Gothic L;-inkscape-font-specification:URW Gothic L Semi-Bold;fill:#ffffff"
         id="path3173"
         inkscape:connector-curvature="0" />
      <path
         d="m 985.15628,896.17828 5.48,0 0,-13 9.16,13 6.60002,0 -11.12002,-15.04 11.12002,-14.52 -6.60002,0 -9.16,12.76 0,-12.76 -5.48,0 0,29.56"
         style="font-weight:600;text-align:center;line-height:100%;text-anchor:middle;font-family:URW Gothic L;-inkscape-font-specification:URW Gothic L Semi-Bold;fill:#ffffff"
         id="path3175"
         inkscape:connector-curvature="0" />
    </g>
    <path
       inkscape:connector-curvature="0"
       style="fill:#ffffff;fill-opacity:1;stroke:none"
       d="m 934.74924,866.11415 c -8.40915,0 -15.22009,6.81866 -15.22009,15.22777 0,4.74791 2.17296,8.98447 5.57889,11.77683 l -5.664,34.07688 30.61813,0 -5.664,-34.07688 c 3.40592,-2.79236 5.57889,-7.02892 5.57889,-11.77683 0,-8.40911 -6.81867,-15.22777 -15.22782,-15.22777 z m -6.67765,12.6898 c 2.19776,0 3.97718,1.77949 3.97718,3.97719 0,2.19777 -1.77942,3.98493 -3.97718,3.98493 -2.19776,0 -3.98492,-1.78716 -3.98492,-3.98493 0,-2.1977 1.78716,-3.97719 3.98492,-3.97719 z m 13.37076,0 c 2.19777,0 3.97718,1.77949 3.97718,3.97719 0,2.19777 -1.77941,3.98493 -3.97718,3.98493 -2.19775,0 -3.98492,-1.78716 -3.98492,-3.98493 0,-2.1977 1.78717,-3.97719 3.98492,-3.97719 z m -6.68538,8.3645 1.58623,2.76238 1.59397,2.75457 -3.1802,0 -3.18794,0 1.59397,-2.75457 1.59397,-2.76238 z m -7.2038,7.5907 c 2.14439,1.15345 4.59053,1.81063 7.19607,1.81063 2.60307,0 5.0531,-0.65918 7.19607,-1.81063 l 1.22256,7.32758 c -0.99925,0.40571 -2.03738,0.73851 -3.10283,0.99821 l -0.51842,-4.07782 -1.27672,0.12385 0.30177,4.26346 c -0.99879,0.17213 -2.0174,0.28201 -3.0564,0.31722 l -0.12381,-4.27893 -1.27672,0 -0.1238,4.27893 c -1.01596,-0.035 -2.01751,-0.13626 -2.9945,-0.30174 l 0.30178,-4.27894 -1.27673,-0.12385 -0.52617,4.10104 c -1.08856,-0.26237 -2.14425,-0.60689 -3.16472,-1.02143 l 1.22257,-7.32758 z"
       id="path3160" />
  </g>
</svg>
